<mxfile host="app.diagrams.net" modified="2021-09-07T11:09:41.838Z" agent="5.0 (Macintosh; Intel Mac OS X 10_15_7) AppleWebKit/537.36 (KHTML, like Gecko) Chrome/81.0.4044.138 Safari/537.36" etag="6GEpMz1OMDTFx0j8v-uM" version="15.0.3" type="github">
  <diagram id="9bPP2De1LOX7Vk7gVH74" name="Page-1">
    <mxGraphModel dx="2066" dy="734" grid="1" gridSize="10" guides="1" tooltips="1" connect="1" arrows="1" fold="1" page="1" pageScale="1" pageWidth="400" pageHeight="300" math="0" shadow="0">
      <root>
        <mxCell id="0" />
        <mxCell id="1" parent="0" />
        <mxCell id="TmiVogRWUnr-1L7LNPXS-1" value="&lt;font style=&quot;font-size: 28px&quot;&gt;Y=1&lt;/font&gt;" style="ellipse;whiteSpace=wrap;html=1;aspect=fixed;fillColor=#e51400;fontColor=#ffffff;strokeColor=#E51400;" parent="1" vertex="1">
          <mxGeometry x="133" y="480" width="80" height="80" as="geometry" />
        </mxCell>
        <mxCell id="TmiVogRWUnr-1L7LNPXS-2" value="&lt;font style=&quot;font-size: 28px&quot;&gt;Y=1&lt;/font&gt;" style="ellipse;whiteSpace=wrap;html=1;aspect=fixed;fillColor=#e51400;fontColor=#ffffff;strokeColor=#E51400;" parent="1" vertex="1">
          <mxGeometry x="623" y="480" width="80" height="80" as="geometry" />
        </mxCell>
        <mxCell id="TmiVogRWUnr-1L7LNPXS-3" value="&lt;font style=&quot;font-size: 28px&quot;&gt;2&lt;/font&gt;" style="ellipse;whiteSpace=wrap;html=1;aspect=fixed;fillColor=#e3c800;fontColor=#000000;strokeColor=#E3C800;" parent="1" vertex="1">
          <mxGeometry x="375" y="575" width="80" height="80" as="geometry" />
        </mxCell>
        <mxCell id="TmiVogRWUnr-1L7LNPXS-4" value="&lt;font style=&quot;font-size: 28px&quot;&gt;2&lt;/font&gt;" style="ellipse;whiteSpace=wrap;html=1;aspect=fixed;fillColor=#e3c800;fontColor=#000000;strokeColor=#E3C800;" parent="1" vertex="1">
          <mxGeometry x="375" y="480" width="80" height="80" as="geometry" />
        </mxCell>
        <mxCell id="TmiVogRWUnr-1L7LNPXS-5" style="rounded=0;orthogonalLoop=1;jettySize=auto;html=1;exitX=0;exitY=0.5;exitDx=0;exitDy=0;endArrow=none;endFill=0;entryX=1;entryY=0.5;entryDx=0;entryDy=0;strokeWidth=2;" parent="1" source="TmiVogRWUnr-1L7LNPXS-2" target="TmiVogRWUnr-1L7LNPXS-4" edge="1">
          <mxGeometry relative="1" as="geometry">
            <mxPoint x="605" y="600" as="sourcePoint" />
            <mxPoint x="605" y="530" as="targetPoint" />
          </mxGeometry>
        </mxCell>
        <mxCell id="TmiVogRWUnr-1L7LNPXS-6" style="rounded=0;orthogonalLoop=1;jettySize=auto;html=1;exitX=0;exitY=1;exitDx=0;exitDy=0;endArrow=none;endFill=0;entryX=1;entryY=0;entryDx=0;entryDy=0;strokeWidth=2;" parent="1" source="TmiVogRWUnr-1L7LNPXS-2" target="TmiVogRWUnr-1L7LNPXS-3" edge="1">
          <mxGeometry relative="1" as="geometry">
            <mxPoint x="615" y="610" as="sourcePoint" />
            <mxPoint x="573.2842712474621" y="528.2842712474621" as="targetPoint" />
          </mxGeometry>
        </mxCell>
        <mxCell id="TmiVogRWUnr-1L7LNPXS-7" value="&lt;font style=&quot;font-size: 28px&quot;&gt;Y=0&lt;/font&gt;" style="ellipse;whiteSpace=wrap;html=1;aspect=fixed;fillColor=#e51400;fontColor=#ffffff;strokeColor=#E51400;" parent="1" vertex="1">
          <mxGeometry x="623" y="670" width="80" height="80" as="geometry" />
        </mxCell>
        <mxCell id="TmiVogRWUnr-1L7LNPXS-8" value="&lt;font style=&quot;font-size: 28px&quot;&gt;Y=0&lt;/font&gt;" style="ellipse;whiteSpace=wrap;html=1;aspect=fixed;fillColor=#e51400;fontColor=#ffffff;strokeColor=#E51400;" parent="1" vertex="1">
          <mxGeometry x="130" y="670" width="80" height="80" as="geometry" />
        </mxCell>
        <mxCell id="TmiVogRWUnr-1L7LNPXS-9" style="rounded=0;orthogonalLoop=1;jettySize=auto;html=1;exitX=0;exitY=0.5;exitDx=0;exitDy=0;endArrow=none;endFill=0;strokeWidth=2;entryX=1;entryY=0.5;entryDx=0;entryDy=0;" parent="1" source="TmiVogRWUnr-1L7LNPXS-4" target="TmiVogRWUnr-1L7LNPXS-1" edge="1">
          <mxGeometry relative="1" as="geometry">
            <mxPoint x="425" y="550" as="sourcePoint" />
            <mxPoint x="345" y="520" as="targetPoint" />
          </mxGeometry>
        </mxCell>
        <mxCell id="TmiVogRWUnr-1L7LNPXS-10" style="rounded=0;orthogonalLoop=1;jettySize=auto;html=1;exitX=0;exitY=0;exitDx=0;exitDy=0;endArrow=none;endFill=0;strokeWidth=2;entryX=1;entryY=1;entryDx=0;entryDy=0;" parent="1" source="TmiVogRWUnr-1L7LNPXS-3" target="TmiVogRWUnr-1L7LNPXS-1" edge="1">
          <mxGeometry relative="1" as="geometry">
            <mxPoint x="516.7157287525379" y="471.71572875253787" as="sourcePoint" />
            <mxPoint x="375" y="450" as="targetPoint" />
          </mxGeometry>
        </mxCell>
        <mxCell id="TmiVogRWUnr-1L7LNPXS-11" style="rounded=0;orthogonalLoop=1;jettySize=auto;html=1;exitX=0;exitY=1;exitDx=0;exitDy=0;endArrow=none;endFill=0;strokeWidth=2;entryX=1;entryY=0;entryDx=0;entryDy=0;" parent="1" source="TmiVogRWUnr-1L7LNPXS-3" target="TmiVogRWUnr-1L7LNPXS-8" edge="1">
          <mxGeometry relative="1" as="geometry">
            <mxPoint x="425" y="550" as="sourcePoint" />
            <mxPoint x="345" y="520" as="targetPoint" />
          </mxGeometry>
        </mxCell>
        <mxCell id="TmiVogRWUnr-1L7LNPXS-12" value="&lt;font style=&quot;font-size: 28px&quot;&gt;0&lt;/font&gt;" style="ellipse;whiteSpace=wrap;html=1;aspect=fixed;fillColor=#e3c800;fontColor=#000000;strokeColor=#E3C800;" parent="1" vertex="1">
          <mxGeometry x="375" y="670" width="80" height="80" as="geometry" />
        </mxCell>
        <mxCell id="TmiVogRWUnr-1L7LNPXS-13" style="rounded=0;orthogonalLoop=1;jettySize=auto;html=1;exitX=0;exitY=0.5;exitDx=0;exitDy=0;endArrow=none;endFill=0;strokeWidth=2;entryX=1;entryY=0.5;entryDx=0;entryDy=0;" parent="1" source="TmiVogRWUnr-1L7LNPXS-7" target="TmiVogRWUnr-1L7LNPXS-12" edge="1">
          <mxGeometry relative="1" as="geometry">
            <mxPoint x="385" y="600" as="sourcePoint" />
            <mxPoint x="265" y="590" as="targetPoint" />
          </mxGeometry>
        </mxCell>
        <mxCell id="TmiVogRWUnr-1L7LNPXS-14" style="rounded=0;orthogonalLoop=1;jettySize=auto;html=1;exitX=0;exitY=0.5;exitDx=0;exitDy=0;endArrow=none;endFill=0;entryX=1;entryY=0.5;entryDx=0;entryDy=0;strokeWidth=2;" parent="1" source="TmiVogRWUnr-1L7LNPXS-12" target="TmiVogRWUnr-1L7LNPXS-8" edge="1">
          <mxGeometry relative="1" as="geometry">
            <mxPoint x="165" y="630" as="sourcePoint" />
            <mxPoint x="155" y="560" as="targetPoint" />
          </mxGeometry>
        </mxCell>
        <mxCell id="TmiVogRWUnr-1L7LNPXS-15" value="&lt;font style=&quot;font-size: 28px&quot;&gt;0&lt;/font&gt;" style="ellipse;whiteSpace=wrap;html=1;aspect=fixed;fillColor=#e3c800;fontColor=#000000;strokeColor=#E3C800;" parent="1" vertex="1">
          <mxGeometry x="230" y="575" width="80" height="80" as="geometry" />
        </mxCell>
        <mxCell id="TmiVogRWUnr-1L7LNPXS-16" value="&lt;font style=&quot;font-size: 28px&quot;&gt;4&lt;/font&gt;" style="ellipse;whiteSpace=wrap;html=1;aspect=fixed;fillColor=#e3c800;fontColor=#000000;strokeColor=#E3C800;" parent="1" vertex="1">
          <mxGeometry x="510" y="575" width="80" height="80" as="geometry" />
        </mxCell>
        <mxCell id="TmiVogRWUnr-1L7LNPXS-17" style="rounded=0;orthogonalLoop=1;jettySize=auto;html=1;exitX=0;exitY=0;exitDx=0;exitDy=0;endArrow=none;endFill=0;strokeWidth=2;entryX=1;entryY=1;entryDx=0;entryDy=0;" parent="1" source="TmiVogRWUnr-1L7LNPXS-7" target="TmiVogRWUnr-1L7LNPXS-16" edge="1">
          <mxGeometry relative="1" as="geometry">
            <mxPoint x="345" y="760" as="sourcePoint" />
            <mxPoint x="255" y="740" as="targetPoint" />
          </mxGeometry>
        </mxCell>
        <mxCell id="TmiVogRWUnr-1L7LNPXS-18" style="rounded=0;orthogonalLoop=1;jettySize=auto;html=1;exitX=1;exitY=1;exitDx=0;exitDy=0;endArrow=none;endFill=0;strokeWidth=2;entryX=0;entryY=0;entryDx=0;entryDy=0;" parent="1" source="TmiVogRWUnr-1L7LNPXS-1" target="TmiVogRWUnr-1L7LNPXS-15" edge="1">
          <mxGeometry relative="1" as="geometry">
            <mxPoint x="516.7157287525379" y="471.71572875253787" as="sourcePoint" />
            <mxPoint x="375" y="450" as="targetPoint" />
          </mxGeometry>
        </mxCell>
        <mxCell id="TmiVogRWUnr-1L7LNPXS-19" style="rounded=0;orthogonalLoop=1;jettySize=auto;html=1;exitX=0.5;exitY=0;exitDx=0;exitDy=0;endArrow=none;endFill=0;strokeWidth=2;entryX=0;entryY=1;entryDx=0;entryDy=0;" parent="1" source="TmiVogRWUnr-1L7LNPXS-8" target="TmiVogRWUnr-1L7LNPXS-15" edge="1">
          <mxGeometry relative="1" as="geometry">
            <mxPoint x="425" y="560" as="sourcePoint" />
            <mxPoint x="363.28427124746213" y="478.28427124746213" as="targetPoint" />
          </mxGeometry>
        </mxCell>
        <mxCell id="TmiVogRWUnr-1L7LNPXS-20" value="" style="verticalLabelPosition=bottom;verticalAlign=top;html=1;shape=mxgraph.basic.rect;fillColor2=none;strokeWidth=1;size=20;indent=5;" parent="1" vertex="1">
          <mxGeometry x="610" y="570" width="180" height="90" as="geometry" />
        </mxCell>
        <mxCell id="TmiVogRWUnr-1L7LNPXS-21" value="" style="verticalLabelPosition=bottom;verticalAlign=top;html=1;shape=mxgraph.basic.x" parent="1" vertex="1">
          <mxGeometry x="620" y="580" width="30" height="30" as="geometry" />
        </mxCell>
        <mxCell id="TmiVogRWUnr-1L7LNPXS-22" value="" style="verticalLabelPosition=bottom;verticalAlign=top;html=1;shape=mxgraph.basic.tick" parent="1" vertex="1">
          <mxGeometry x="620" y="620" width="30" height="30" as="geometry" />
        </mxCell>
        <mxCell id="TmiVogRWUnr-1L7LNPXS-23" value="&lt;i&gt;&lt;font style=&quot;font-size: 28px&quot;&gt;sum/mean&lt;/font&gt;&lt;/i&gt;" style="text;html=1;resizable=0;autosize=1;align=center;verticalAlign=middle;points=[];fillColor=none;strokeColor=none;rounded=0;" parent="1" vertex="1">
          <mxGeometry x="640" y="580" width="150" height="30" as="geometry" />
        </mxCell>
        <mxCell id="TmiVogRWUnr-1L7LNPXS-25" value="&lt;font style=&quot;font-size: 28px&quot;&gt;max/min&lt;/font&gt;" style="text;html=1;resizable=0;autosize=1;align=center;verticalAlign=middle;points=[];fillColor=none;strokeColor=none;rounded=0;" parent="1" vertex="1">
          <mxGeometry x="660" y="620" width="120" height="30" as="geometry" />
        </mxCell>
        <mxCell id="TmiVogRWUnr-1L7LNPXS-26" value="" style="verticalLabelPosition=bottom;verticalAlign=top;html=1;shape=mxgraph.basic.rect;fillColor2=none;strokeWidth=1;size=20;indent=5;" parent="1" vertex="1">
          <mxGeometry x="10" y="570" width="180" height="90" as="geometry" />
        </mxCell>
        <mxCell id="TmiVogRWUnr-1L7LNPXS-27" value="" style="verticalLabelPosition=bottom;verticalAlign=top;html=1;shape=mxgraph.basic.x" parent="1" vertex="1">
          <mxGeometry x="20" y="580" width="30" height="30" as="geometry" />
        </mxCell>
        <mxCell id="TmiVogRWUnr-1L7LNPXS-28" value="" style="verticalLabelPosition=bottom;verticalAlign=top;html=1;shape=mxgraph.basic.tick" parent="1" vertex="1">
          <mxGeometry x="20" y="620" width="30" height="30" as="geometry" />
        </mxCell>
        <mxCell id="TmiVogRWUnr-1L7LNPXS-29" value="&lt;i&gt;&lt;font style=&quot;font-size: 28px&quot;&gt;max/min&lt;/font&gt;&lt;/i&gt;" style="text;html=1;resizable=0;autosize=1;align=center;verticalAlign=middle;points=[];fillColor=none;strokeColor=none;rounded=0;" parent="1" vertex="1">
          <mxGeometry x="55" y="580" width="120" height="30" as="geometry" />
        </mxCell>
        <mxCell id="TmiVogRWUnr-1L7LNPXS-30" value="&lt;font style=&quot;font-size: 28px&quot;&gt;sum/mean&lt;/font&gt;" style="text;html=1;resizable=0;autosize=1;align=center;verticalAlign=middle;points=[];fillColor=none;strokeColor=none;rounded=0;" parent="1" vertex="1">
          <mxGeometry x="40" y="620" width="150" height="30" as="geometry" />
        </mxCell>
      </root>
    </mxGraphModel>
  </diagram>
</mxfile>
